<?xml version="1.0" encoding="utf-8"?>
<!-- Generator: Adobe Illustrator 26.5.0, SVG Export Plug-In . SVG Version: 6.00 Build 0)  -->
<svg version="1.1" id="Layer_1" xmlns="http://www.w3.org/2000/svg" xmlns:xlink="http://www.w3.org/1999/xlink" x="0px" y="0px"
	 viewBox="0 0 512 512" style="enable-background:new 0 0 512 512;" xml:space="preserve">
<style type="text/css">
	.st0{fill-rule:evenodd;clip-rule:evenodd;}
</style>
<path d="M242.7,340.3h26.6v-72.6h67v-25.8h-67v-72.6h-26.6v72.6h-66.2v25.8h66.2V340.3z"/>
<path d="M119.3,445.2h22.6v-64.5h59.7v-20.2h-59.7v-65.3h-22.6v65.3H59.6v20.2h59.7V445.2z"/>
<path d="M370.1,212h22.6v-64.5h60.5v-19.4h-60.5V62.8h-22.6v65.3h-59.7v19.4h59.7V212z"/>
<path d="M246.7,496h19.4v-46h41.1v-16.9h-41.2v-46h-19.4v46h-40.3V450h40.3V496z"/>
<path d="M120.1,212h21v-65.3h60.5v-18.6H141V62.8h-21v65.3H59.6v18.6h60.5V212z"/>
<path d="M435.7,308.8h19.4v-45.2H496v-17.7h-40.9v-45.2h-19.4v45.2h-40.3v17.7h40.3L435.7,308.8z"/>
<path class="st0" d="M370.1,445.2h22.6v-64.5h60.5v-20.2h-60.5v-65.3h-22.6v65.3h-59.7v20.2h59.7V445.2z"/>
<path d="M307,74.1V60.4h-40.3V16h-14.5v44.4h-40.3v13.7h40.3v44.4h14.5V74.1H307z M56.1,305.6h14.5v-44.4H111v-13.7H70.6V204H56.1
	v43.6H16v14.5l40.1-0.1V305.6z"/>
</svg>
